<?xml version="1.0" encoding="UTF-8" standalone="no"?>
<!DOCTYPE svg PUBLIC "-//W3C//DTD SVG 1.1//EN"
 "http://www.w3.org/Graphics/SVG/1.1/DTD/svg11.dtd">
<!-- Generated by graphviz version 7.0.6 (20230106.0513)
 -->
<!-- Pages: 1 -->
<svg width="1797pt" height="764pt"
 viewBox="0.00 0.00 1796.68 764.00" xmlns="http://www.w3.org/2000/svg" xmlns:xlink="http://www.w3.org/1999/xlink">
<g id="graph0" class="graph" transform="scale(1 1) rotate(0) translate(4 760)">
<polygon fill="white" stroke="none" points="-4,4 -4,-760 1792.68,-760 1792.68,4 -4,4"/>
<!-- [root] aws_api_gateway_api_key.data_api_key (expand) -->
<g id="node1" class="node">
<title>[root] aws_api_gateway_api_key.data_api_key (expand)</title>
<polygon fill="none" stroke="black" points="1499.68,-468 1262.68,-468 1262.68,-432 1499.68,-432 1499.68,-468"/>
<text text-anchor="middle" x="1381.18" y="-446.3" font-family="Times,serif" font-size="14.00">aws_api_gateway_api_key.data_api_key</text>
</g>
<!-- [root] provider[&quot;registry.terraform.io/hashicorp/aws&quot;] -->
<g id="node25" class="node">
<title>[root] provider[&quot;registry.terraform.io/hashicorp/aws&quot;]</title>
<polygon fill="none" stroke="black" points="1446.18,-36 1193.64,-18 1446.18,0 1698.72,-18 1446.18,-36"/>
<text text-anchor="middle" x="1446.18" y="-14.3" font-family="Times,serif" font-size="14.00">provider[&quot;registry.terraform.io/hashicorp/aws&quot;]</text>
</g>
<!-- [root] aws_api_gateway_api_key.data_api_key (expand)&#45;&gt;[root] provider[&quot;registry.terraform.io/hashicorp/aws&quot;] -->
<g id="edge1" class="edge">
<title>[root] aws_api_gateway_api_key.data_api_key (expand)&#45;&gt;[root] provider[&quot;registry.terraform.io/hashicorp/aws&quot;]</title>
<path fill="none" stroke="black" d="M1394.96,-431.79C1414.04,-406.18 1446.18,-355.8 1446.18,-307 1446.18,-307 1446.18,-307 1446.18,-161 1446.18,-121.74 1446.18,-76.38 1446.18,-47.69"/>
<polygon fill="black" stroke="black" points="1449.68,-48 1446.18,-38 1442.68,-48 1449.68,-48"/>
</g>
<!-- [root] aws_api_gateway_deployment.swing_tracker_api_deployment (expand) -->
<g id="node2" class="node">
<title>[root] aws_api_gateway_deployment.swing_tracker_api_deployment (expand)</title>
<polygon fill="none" stroke="black" points="1118.68,-396 759.68,-396 759.68,-360 1118.68,-360 1118.68,-396"/>
<text text-anchor="middle" x="939.18" y="-374.3" font-family="Times,serif" font-size="14.00">aws_api_gateway_deployment.swing_tracker_api_deployment</text>
</g>
<!-- [root] aws_api_gateway_integration.data_integration (expand) -->
<g id="node3" class="node">
<title>[root] aws_api_gateway_integration.data_integration (expand)</title>
<polygon fill="none" stroke="black" points="1037.68,-324 768.68,-324 768.68,-288 1037.68,-288 1037.68,-324"/>
<text text-anchor="middle" x="903.18" y="-302.3" font-family="Times,serif" font-size="14.00">aws_api_gateway_integration.data_integration</text>
</g>
<!-- [root] aws_api_gateway_deployment.swing_tracker_api_deployment (expand)&#45;&gt;[root] aws_api_gateway_integration.data_integration (expand) -->
<g id="edge2" class="edge">
<title>[root] aws_api_gateway_deployment.swing_tracker_api_deployment (expand)&#45;&gt;[root] aws_api_gateway_integration.data_integration (expand)</title>
<path fill="none" stroke="black" d="M930.28,-359.7C926.31,-351.98 921.55,-342.71 917.12,-334.11"/>
<polygon fill="black" stroke="black" points="920.35,-332.74 912.67,-325.45 914.13,-335.94 920.35,-332.74"/>
</g>
<!-- [root] aws_api_gateway_method.data_method (expand) -->
<g id="node7" class="node">
<title>[root] aws_api_gateway_method.data_method (expand)</title>
<polygon fill="none" stroke="black" points="779.68,-252 544.68,-252 544.68,-216 779.68,-216 779.68,-252"/>
<text text-anchor="middle" x="662.18" y="-230.3" font-family="Times,serif" font-size="14.00">aws_api_gateway_method.data_method</text>
</g>
<!-- [root] aws_api_gateway_integration.data_integration (expand)&#45;&gt;[root] aws_api_gateway_method.data_method (expand) -->
<g id="edge3" class="edge">
<title>[root] aws_api_gateway_integration.data_integration (expand)&#45;&gt;[root] aws_api_gateway_method.data_method (expand)</title>
<path fill="none" stroke="black" d="M842.99,-287.52C809.5,-277.79 767.65,-265.64 732.65,-255.47"/>
<polygon fill="black" stroke="black" points="734.05,-252.23 723.47,-252.8 732.1,-258.95 734.05,-252.23"/>
</g>
<!-- [root] aws_lambda_function.data (expand) -->
<g id="node20" class="node">
<title>[root] aws_lambda_function.data (expand)</title>
<polygon fill="none" stroke="black" points="1062.68,-252 899.68,-252 899.68,-216 1062.68,-216 1062.68,-252"/>
<text text-anchor="middle" x="981.18" y="-230.3" font-family="Times,serif" font-size="14.00">aws_lambda_function.data</text>
</g>
<!-- [root] aws_api_gateway_integration.data_integration (expand)&#45;&gt;[root] aws_lambda_function.data (expand) -->
<g id="edge4" class="edge">
<title>[root] aws_api_gateway_integration.data_integration (expand)&#45;&gt;[root] aws_lambda_function.data (expand)</title>
<path fill="none" stroke="black" d="M922.46,-287.7C931.83,-279.28 943.27,-269.02 953.56,-259.79"/>
<polygon fill="black" stroke="black" points="955.62,-262.64 960.72,-253.36 950.94,-257.43 955.62,-262.64"/>
</g>
<!-- [root] aws_api_gateway_integration.data_options_integration (expand) -->
<g id="node4" class="node">
<title>[root] aws_api_gateway_integration.data_options_integration (expand)</title>
<polygon fill="none" stroke="black" points="737.18,-540 421.18,-540 421.18,-504 737.18,-504 737.18,-540"/>
<text text-anchor="middle" x="579.18" y="-518.3" font-family="Times,serif" font-size="14.00">aws_api_gateway_integration.data_options_integration</text>
</g>
<!-- [root] aws_api_gateway_method.data_options_method (expand) -->
<g id="node8" class="node">
<title>[root] aws_api_gateway_method.data_options_method (expand)</title>
<polygon fill="none" stroke="black" points="476.68,-468 195.68,-468 195.68,-432 476.68,-432 476.68,-468"/>
<text text-anchor="middle" x="336.18" y="-446.3" font-family="Times,serif" font-size="14.00">aws_api_gateway_method.data_options_method</text>
</g>
<!-- [root] aws_api_gateway_integration.data_options_integration (expand)&#45;&gt;[root] aws_api_gateway_method.data_options_method (expand) -->
<g id="edge5" class="edge">
<title>[root] aws_api_gateway_integration.data_options_integration (expand)&#45;&gt;[root] aws_api_gateway_method.data_options_method (expand)</title>
<path fill="none" stroke="black" d="M518.49,-503.52C484.73,-493.79 442.53,-481.64 407.23,-471.47"/>
<polygon fill="black" stroke="black" points="408.55,-468.21 397.97,-468.8 406.61,-474.93 408.55,-468.21"/>
</g>
<!-- [root] aws_api_gateway_integration_response.data_integration_response (expand) -->
<g id="node5" class="node">
<title>[root] aws_api_gateway_integration_response.data_integration_response (expand)</title>
<polygon fill="none" stroke="black" points="741.68,-396 364.68,-396 364.68,-360 741.68,-360 741.68,-396"/>
<text text-anchor="middle" x="553.18" y="-374.3" font-family="Times,serif" font-size="14.00">aws_api_gateway_integration_response.data_integration_response</text>
</g>
<!-- [root] aws_api_gateway_integration_response.data_integration_response (expand)&#45;&gt;[root] aws_api_gateway_integration.data_integration (expand) -->
<g id="edge6" class="edge">
<title>[root] aws_api_gateway_integration_response.data_integration_response (expand)&#45;&gt;[root] aws_api_gateway_integration.data_integration (expand)</title>
<path fill="none" stroke="black" d="M640.6,-359.52C690.49,-349.54 753.18,-337 804.79,-326.68"/>
<polygon fill="black" stroke="black" points="805.36,-330.13 814.48,-324.74 803.99,-323.27 805.36,-330.13"/>
</g>
<!-- [root] aws_api_gateway_method_response.data_response_200 (expand) -->
<g id="node10" class="node">
<title>[root] aws_api_gateway_method_response.data_response_200 (expand)</title>
<polygon fill="none" stroke="black" points="732.18,-324 410.18,-324 410.18,-288 732.18,-288 732.18,-324"/>
<text text-anchor="middle" x="571.18" y="-302.3" font-family="Times,serif" font-size="14.00">aws_api_gateway_method_response.data_response_200</text>
</g>
<!-- [root] aws_api_gateway_integration_response.data_integration_response (expand)&#45;&gt;[root] aws_api_gateway_method_response.data_response_200 (expand) -->
<g id="edge7" class="edge">
<title>[root] aws_api_gateway_integration_response.data_integration_response (expand)&#45;&gt;[root] aws_api_gateway_method_response.data_response_200 (expand)</title>
<path fill="none" stroke="black" d="M557.63,-359.7C559.52,-352.32 561.79,-343.52 563.91,-335.25"/>
<polygon fill="black" stroke="black" points="567.3,-336.13 566.4,-325.57 560.52,-334.38 567.3,-336.13"/>
</g>
<!-- [root] aws_api_gateway_integration_response.data_options_integration_response (expand) -->
<g id="node6" class="node">
<title>[root] aws_api_gateway_integration_response.data_options_integration_response (expand)</title>
<polygon fill="none" stroke="black" points="519.18,-612 95.18,-612 95.18,-576 519.18,-576 519.18,-612"/>
<text text-anchor="middle" x="307.18" y="-590.3" font-family="Times,serif" font-size="14.00">aws_api_gateway_integration_response.data_options_integration_response</text>
</g>
<!-- [root] aws_api_gateway_method_response.data_options_response_200 (expand) -->
<g id="node9" class="node">
<title>[root] aws_api_gateway_method_response.data_options_response_200 (expand)</title>
<polygon fill="none" stroke="black" points="403.18,-540 35.18,-540 35.18,-504 403.18,-504 403.18,-540"/>
<text text-anchor="middle" x="219.18" y="-518.3" font-family="Times,serif" font-size="14.00">aws_api_gateway_method_response.data_options_response_200</text>
</g>
<!-- [root] aws_api_gateway_integration_response.data_options_integration_response (expand)&#45;&gt;[root] aws_api_gateway_method_response.data_options_response_200 (expand) -->
<g id="edge8" class="edge">
<title>[root] aws_api_gateway_integration_response.data_options_integration_response (expand)&#45;&gt;[root] aws_api_gateway_method_response.data_options_response_200 (expand)</title>
<path fill="none" stroke="black" d="M285.43,-575.7C274.74,-567.2 261.69,-556.81 250,-547.51"/>
<polygon fill="black" stroke="black" points="252.18,-544.78 242.17,-541.29 247.82,-550.25 252.18,-544.78"/>
</g>
<!-- [root] aws_api_gateway_resource.data (expand) -->
<g id="node11" class="node">
<title>[root] aws_api_gateway_resource.data (expand)</title>
<polygon fill="none" stroke="black" points="757.68,-180 566.68,-180 566.68,-144 757.68,-144 757.68,-180"/>
<text text-anchor="middle" x="662.18" y="-158.3" font-family="Times,serif" font-size="14.00">aws_api_gateway_resource.data</text>
</g>
<!-- [root] aws_api_gateway_method.data_method (expand)&#45;&gt;[root] aws_api_gateway_resource.data (expand) -->
<g id="edge9" class="edge">
<title>[root] aws_api_gateway_method.data_method (expand)&#45;&gt;[root] aws_api_gateway_resource.data (expand)</title>
<path fill="none" stroke="black" d="M662.18,-215.7C662.18,-208.41 662.18,-199.73 662.18,-191.54"/>
<polygon fill="black" stroke="black" points="665.68,-191.62 662.18,-181.62 658.68,-191.62 665.68,-191.62"/>
</g>
<!-- [root] aws_api_gateway_method.data_options_method (expand)&#45;&gt;[root] aws_api_gateway_resource.data (expand) -->
<g id="edge10" class="edge">
<title>[root] aws_api_gateway_method.data_options_method (expand)&#45;&gt;[root] aws_api_gateway_resource.data (expand)</title>
<path fill="none" stroke="black" d="M338.01,-431.73C340.37,-413.39 345.4,-383.83 355.18,-360 369.6,-324.87 373.33,-313.82 401.18,-288 455.6,-237.54 534.13,-203.69 590.82,-184.08"/>
<polygon fill="black" stroke="black" points="591.71,-187.48 600.06,-180.96 589.46,-180.85 591.71,-187.48"/>
</g>
<!-- [root] aws_api_gateway_method_response.data_options_response_200 (expand)&#45;&gt;[root] aws_api_gateway_method.data_options_method (expand) -->
<g id="edge11" class="edge">
<title>[root] aws_api_gateway_method_response.data_options_response_200 (expand)&#45;&gt;[root] aws_api_gateway_method.data_options_method (expand)</title>
<path fill="none" stroke="black" d="M248.4,-503.52C263.31,-494.6 281.64,-483.63 297.68,-474.03"/>
<polygon fill="black" stroke="black" points="299.25,-477.18 306.03,-469.04 295.65,-471.17 299.25,-477.18"/>
</g>
<!-- [root] aws_api_gateway_method_response.data_response_200 (expand)&#45;&gt;[root] aws_api_gateway_method.data_method (expand) -->
<g id="edge12" class="edge">
<title>[root] aws_api_gateway_method_response.data_response_200 (expand)&#45;&gt;[root] aws_api_gateway_method.data_method (expand)</title>
<path fill="none" stroke="black" d="M593.67,-287.7C604.83,-279.11 618.49,-268.61 630.67,-259.24"/>
<polygon fill="black" stroke="black" points="632.64,-262.14 638.43,-253.27 628.37,-256.59 632.64,-262.14"/>
</g>
<!-- [root] aws_api_gateway_rest_api.swing_tracker_api (expand) -->
<g id="node12" class="node">
<title>[root] aws_api_gateway_rest_api.swing_tracker_api (expand)</title>
<polygon fill="none" stroke="black" points="1418.18,-108 1152.18,-108 1152.18,-72 1418.18,-72 1418.18,-108"/>
<text text-anchor="middle" x="1285.18" y="-86.3" font-family="Times,serif" font-size="14.00">aws_api_gateway_rest_api.swing_tracker_api</text>
</g>
<!-- [root] aws_api_gateway_resource.data (expand)&#45;&gt;[root] aws_api_gateway_rest_api.swing_tracker_api (expand) -->
<g id="edge13" class="edge">
<title>[root] aws_api_gateway_resource.data (expand)&#45;&gt;[root] aws_api_gateway_rest_api.swing_tracker_api (expand)</title>
<path fill="none" stroke="black" d="M757.83,-150.68C852.17,-140.44 1000.82,-124.16 1140.64,-108.17"/>
<polygon fill="black" stroke="black" points="1140.94,-111.66 1150.47,-107.04 1140.14,-104.71 1140.94,-111.66"/>
</g>
<!-- [root] aws_api_gateway_rest_api.swing_tracker_api (expand)&#45;&gt;[root] provider[&quot;registry.terraform.io/hashicorp/aws&quot;] -->
<g id="edge14" class="edge">
<title>[root] aws_api_gateway_rest_api.swing_tracker_api (expand)&#45;&gt;[root] provider[&quot;registry.terraform.io/hashicorp/aws&quot;]</title>
<path fill="none" stroke="black" d="M1325.39,-71.52C1348.41,-61.51 1377.35,-48.93 1401.13,-38.59"/>
<polygon fill="black" stroke="black" points="1402.49,-41.81 1410.27,-34.61 1399.7,-35.39 1402.49,-41.81"/>
</g>
<!-- [root] aws_api_gateway_stage.swing_tracker_api_stage (expand) -->
<g id="node13" class="node">
<title>[root] aws_api_gateway_stage.swing_tracker_api_stage (expand)</title>
<polygon fill="none" stroke="black" points="1031.68,-468 746.68,-468 746.68,-432 1031.68,-432 1031.68,-468"/>
<text text-anchor="middle" x="889.18" y="-446.3" font-family="Times,serif" font-size="14.00">aws_api_gateway_stage.swing_tracker_api_stage</text>
</g>
<!-- [root] aws_api_gateway_stage.swing_tracker_api_stage (expand)&#45;&gt;[root] aws_api_gateway_deployment.swing_tracker_api_deployment (expand) -->
<g id="edge15" class="edge">
<title>[root] aws_api_gateway_stage.swing_tracker_api_stage (expand)&#45;&gt;[root] aws_api_gateway_deployment.swing_tracker_api_deployment (expand)</title>
<path fill="none" stroke="black" d="M901.54,-431.7C907.23,-423.73 914.11,-414.1 920.42,-405.26"/>
<polygon fill="black" stroke="black" points="923.12,-407.51 926.08,-397.34 917.42,-403.44 923.12,-407.51"/>
</g>
<!-- [root] aws_api_gateway_usage_plan.data_usage_plan (expand) -->
<g id="node14" class="node">
<title>[root] aws_api_gateway_usage_plan.data_usage_plan (expand)</title>
<polygon fill="none" stroke="black" points="1080.18,-540 806.18,-540 806.18,-504 1080.18,-504 1080.18,-540"/>
<text text-anchor="middle" x="943.18" y="-518.3" font-family="Times,serif" font-size="14.00">aws_api_gateway_usage_plan.data_usage_plan</text>
</g>
<!-- [root] aws_api_gateway_usage_plan.data_usage_plan (expand)&#45;&gt;[root] aws_api_gateway_stage.swing_tracker_api_stage (expand) -->
<g id="edge16" class="edge">
<title>[root] aws_api_gateway_usage_plan.data_usage_plan (expand)&#45;&gt;[root] aws_api_gateway_stage.swing_tracker_api_stage (expand)</title>
<path fill="none" stroke="black" d="M929.83,-503.7C923.62,-495.64 916.1,-485.89 909.22,-476.98"/>
<polygon fill="black" stroke="black" points="912.18,-475.08 903.3,-469.3 906.63,-479.36 912.18,-475.08"/>
</g>
<!-- [root] aws_api_gateway_usage_plan_key.data_usage_plan_key (expand) -->
<g id="node15" class="node">
<title>[root] aws_api_gateway_usage_plan_key.data_usage_plan_key (expand)</title>
<polygon fill="none" stroke="black" points="1119.18,-612 793.18,-612 793.18,-576 1119.18,-576 1119.18,-612"/>
<text text-anchor="middle" x="956.18" y="-590.3" font-family="Times,serif" font-size="14.00">aws_api_gateway_usage_plan_key.data_usage_plan_key</text>
</g>
<!-- [root] aws_api_gateway_usage_plan_key.data_usage_plan_key (expand)&#45;&gt;[root] aws_api_gateway_api_key.data_api_key (expand) -->
<g id="edge17" class="edge">
<title>[root] aws_api_gateway_usage_plan_key.data_usage_plan_key (expand)&#45;&gt;[root] aws_api_gateway_api_key.data_api_key (expand)</title>
<path fill="none" stroke="black" d="M1008.29,-575.59C1086.54,-549.44 1234.16,-500.12 1318.29,-472.01"/>
<polygon fill="black" stroke="black" points="1319.16,-475.41 1327.54,-468.92 1316.94,-468.77 1319.16,-475.41"/>
</g>
<!-- [root] aws_api_gateway_usage_plan_key.data_usage_plan_key (expand)&#45;&gt;[root] aws_api_gateway_usage_plan.data_usage_plan (expand) -->
<g id="edge18" class="edge">
<title>[root] aws_api_gateway_usage_plan_key.data_usage_plan_key (expand)&#45;&gt;[root] aws_api_gateway_usage_plan.data_usage_plan (expand)</title>
<path fill="none" stroke="black" d="M952.97,-575.7C951.6,-568.32 949.96,-559.52 948.43,-551.25"/>
<polygon fill="black" stroke="black" points="951.9,-550.79 946.63,-541.59 945.02,-552.06 951.9,-550.79"/>
</g>
<!-- [root] aws_cloudwatch_log_group.data (expand) -->
<g id="node16" class="node">
<title>[root] aws_cloudwatch_log_group.data (expand)</title>
<polygon fill="none" stroke="black" points="1244.68,-468 1049.68,-468 1049.68,-432 1244.68,-432 1244.68,-468"/>
<text text-anchor="middle" x="1147.18" y="-446.3" font-family="Times,serif" font-size="14.00">aws_cloudwatch_log_group.data</text>
</g>
<!-- [root] aws_cloudwatch_log_group.data (expand)&#45;&gt;[root] aws_lambda_function.data (expand) -->
<g id="edge19" class="edge">
<title>[root] aws_cloudwatch_log_group.data (expand)&#45;&gt;[root] aws_lambda_function.data (expand)</title>
<path fill="none" stroke="black" d="M1146.42,-431.79C1144.92,-412.98 1140.45,-382.51 1127.18,-360 1101.43,-316.31 1054.79,-280.43 1021.14,-258.5"/>
<polygon fill="black" stroke="black" points="1023.18,-255.65 1012.86,-253.23 1019.42,-261.55 1023.18,-255.65"/>
</g>
<!-- [root] aws_dynamodb_table.courses_table (expand) -->
<g id="node17" class="node">
<title>[root] aws_dynamodb_table.courses_table (expand)</title>
<polygon fill="none" stroke="black" points="1724.18,-396 1512.18,-396 1512.18,-360 1724.18,-360 1724.18,-396"/>
<text text-anchor="middle" x="1618.18" y="-374.3" font-family="Times,serif" font-size="14.00">aws_dynamodb_table.courses_table</text>
</g>
<!-- [root] aws_dynamodb_table.courses_table (expand)&#45;&gt;[root] provider[&quot;registry.terraform.io/hashicorp/aws&quot;] -->
<g id="edge20" class="edge">
<title>[root] aws_dynamodb_table.courses_table (expand)&#45;&gt;[root] provider[&quot;registry.terraform.io/hashicorp/aws&quot;]</title>
<path fill="none" stroke="black" d="M1603.97,-359.86C1584.3,-334.34 1551.18,-284.07 1551.18,-235 1551.18,-235 1551.18,-235 1551.18,-161 1551.18,-110.91 1508.42,-66.92 1477.47,-41.64"/>
<polygon fill="black" stroke="black" points="1479.91,-39.11 1469.89,-35.66 1475.57,-44.6 1479.91,-39.11"/>
</g>
<!-- [root] aws_dynamodb_table.rounds_table (expand) -->
<g id="node18" class="node">
<title>[root] aws_dynamodb_table.rounds_table (expand)</title>
<polygon fill="none" stroke="black" points="1788.68,-252 1579.68,-252 1579.68,-216 1788.68,-216 1788.68,-252"/>
<text text-anchor="middle" x="1684.18" y="-230.3" font-family="Times,serif" font-size="14.00">aws_dynamodb_table.rounds_table</text>
</g>
<!-- [root] aws_dynamodb_table.rounds_table (expand)&#45;&gt;[root] provider[&quot;registry.terraform.io/hashicorp/aws&quot;] -->
<g id="edge21" class="edge">
<title>[root] aws_dynamodb_table.rounds_table (expand)&#45;&gt;[root] provider[&quot;registry.terraform.io/hashicorp/aws&quot;]</title>
<path fill="none" stroke="black" d="M1675.34,-215.68C1658.13,-183.46 1617.21,-113.79 1565.18,-72 1546.86,-57.29 1523.81,-45.79 1502.89,-37.32"/>
<polygon fill="black" stroke="black" points="1504.18,-34.06 1493.59,-33.71 1501.65,-40.59 1504.18,-34.06"/>
</g>
<!-- [root] aws_iam_role.lambda_role (expand) -->
<g id="node19" class="node">
<title>[root] aws_iam_role.lambda_role (expand)</title>
<polygon fill="none" stroke="black" points="1063.68,-180 898.68,-180 898.68,-144 1063.68,-144 1063.68,-180"/>
<text text-anchor="middle" x="981.18" y="-158.3" font-family="Times,serif" font-size="14.00">aws_iam_role.lambda_role</text>
</g>
<!-- [root] data.aws_iam_policy_document.lambda_role_policy (expand) -->
<g id="node23" class="node">
<title>[root] data.aws_iam_policy_document.lambda_role_policy (expand)</title>
<polygon fill="none" stroke="black" points="1133.68,-108 828.68,-108 828.68,-72 1133.68,-72 1133.68,-108"/>
<text text-anchor="middle" x="981.18" y="-86.3" font-family="Times,serif" font-size="14.00">data.aws_iam_policy_document.lambda_role_policy</text>
</g>
<!-- [root] aws_iam_role.lambda_role (expand)&#45;&gt;[root] data.aws_iam_policy_document.lambda_role_policy (expand) -->
<g id="edge22" class="edge">
<title>[root] aws_iam_role.lambda_role (expand)&#45;&gt;[root] data.aws_iam_policy_document.lambda_role_policy (expand)</title>
<path fill="none" stroke="black" d="M981.18,-143.7C981.18,-136.41 981.18,-127.73 981.18,-119.54"/>
<polygon fill="black" stroke="black" points="984.68,-119.62 981.18,-109.62 977.68,-119.62 984.68,-119.62"/>
</g>
<!-- [root] aws_lambda_function.data (expand)&#45;&gt;[root] aws_iam_role.lambda_role (expand) -->
<g id="edge23" class="edge">
<title>[root] aws_lambda_function.data (expand)&#45;&gt;[root] aws_iam_role.lambda_role (expand)</title>
<path fill="none" stroke="black" d="M981.18,-215.7C981.18,-208.41 981.18,-199.73 981.18,-191.54"/>
<polygon fill="black" stroke="black" points="984.68,-191.62 981.18,-181.62 977.68,-191.62 984.68,-191.62"/>
</g>
<!-- [root] data.archive_file.data (expand) -->
<g id="node22" class="node">
<title>[root] data.archive_file.data (expand)</title>
<polygon fill="none" stroke="black" points="345.18,-180 211.18,-180 211.18,-144 345.18,-144 345.18,-180"/>
<text text-anchor="middle" x="278.18" y="-158.3" font-family="Times,serif" font-size="14.00">data.archive_file.data</text>
</g>
<!-- [root] aws_lambda_function.data (expand)&#45;&gt;[root] data.archive_file.data (expand) -->
<g id="edge24" class="edge">
<title>[root] aws_lambda_function.data (expand)&#45;&gt;[root] data.archive_file.data (expand)</title>
<path fill="none" stroke="black" d="M899.5,-224.87C763.27,-211.3 491.39,-184.23 357.05,-170.85"/>
<polygon fill="black" stroke="black" points="357.46,-167.38 347.16,-169.87 356.77,-174.34 357.46,-167.38"/>
</g>
<!-- [root] aws_lambda_permission.apigw_lambda (expand) -->
<g id="node21" class="node">
<title>[root] aws_lambda_permission.apigw_lambda (expand)</title>
<polygon fill="none" stroke="black" points="1411.18,-324 1175.18,-324 1175.18,-288 1411.18,-288 1411.18,-324"/>
<text text-anchor="middle" x="1293.18" y="-302.3" font-family="Times,serif" font-size="14.00">aws_lambda_permission.apigw_lambda</text>
</g>
<!-- [root] aws_lambda_permission.apigw_lambda (expand)&#45;&gt;[root] aws_api_gateway_rest_api.swing_tracker_api (expand) -->
<g id="edge25" class="edge">
<title>[root] aws_lambda_permission.apigw_lambda (expand)&#45;&gt;[root] aws_api_gateway_rest_api.swing_tracker_api (expand)</title>
<path fill="none" stroke="black" d="M1292.54,-287.85C1291.17,-251.14 1287.93,-164.66 1286.25,-119.53"/>
<polygon fill="black" stroke="black" points="1289.75,-119.61 1285.88,-109.74 1282.76,-119.87 1289.75,-119.61"/>
</g>
<!-- [root] aws_lambda_permission.apigw_lambda (expand)&#45;&gt;[root] aws_lambda_function.data (expand) -->
<g id="edge26" class="edge">
<title>[root] aws_lambda_permission.apigw_lambda (expand)&#45;&gt;[root] aws_lambda_function.data (expand)</title>
<path fill="none" stroke="black" d="M1215.25,-287.52C1171.15,-277.62 1115.83,-265.21 1070.04,-254.94"/>
<polygon fill="black" stroke="black" points="1070.92,-251.55 1060.4,-252.77 1069.39,-258.38 1070.92,-251.55"/>
</g>
<!-- [root] provider[&quot;registry.terraform.io/hashicorp/archive&quot;] -->
<g id="node24" class="node">
<title>[root] provider[&quot;registry.terraform.io/hashicorp/archive&quot;]</title>
<polygon fill="none" stroke="black" points="278.18,-108 9.05,-90 278.18,-72 547.31,-90 278.18,-108"/>
<text text-anchor="middle" x="278.18" y="-86.3" font-family="Times,serif" font-size="14.00">provider[&quot;registry.terraform.io/hashicorp/archive&quot;]</text>
</g>
<!-- [root] data.archive_file.data (expand)&#45;&gt;[root] provider[&quot;registry.terraform.io/hashicorp/archive&quot;] -->
<g id="edge27" class="edge">
<title>[root] data.archive_file.data (expand)&#45;&gt;[root] provider[&quot;registry.terraform.io/hashicorp/archive&quot;]</title>
<path fill="none" stroke="black" d="M278.18,-143.7C278.18,-136.41 278.18,-127.73 278.18,-119.54"/>
<polygon fill="black" stroke="black" points="281.68,-119.62 278.18,-109.62 274.68,-119.62 281.68,-119.62"/>
</g>
<!-- [root] data.aws_iam_policy_document.lambda_role_policy (expand)&#45;&gt;[root] provider[&quot;registry.terraform.io/hashicorp/aws&quot;] -->
<g id="edge28" class="edge">
<title>[root] data.aws_iam_policy_document.lambda_role_policy (expand)&#45;&gt;[root] provider[&quot;registry.terraform.io/hashicorp/aws&quot;]</title>
<path fill="none" stroke="black" d="M1097.32,-71.52C1177.53,-59.44 1282.65,-43.62 1356.45,-32.51"/>
<polygon fill="black" stroke="black" points="1356.69,-36.01 1366.06,-31.06 1355.65,-29.09 1356.69,-36.01"/>
</g>
<!-- [root] provider[&quot;registry.terraform.io/hashicorp/archive&quot;] (close) -->
<g id="node26" class="node">
<title>[root] provider[&quot;registry.terraform.io/hashicorp/archive&quot;] (close)</title>
<ellipse fill="none" stroke="black" cx="239.18" cy="-666" rx="239.36" ry="18"/>
<text text-anchor="middle" x="239.18" y="-662.3" font-family="Times,serif" font-size="14.00">[root] provider[&quot;registry.terraform.io/hashicorp/archive&quot;] (close)</text>
</g>
<!-- [root] provider[&quot;registry.terraform.io/hashicorp/archive&quot;] (close)&#45;&gt;[root] data.archive_file.data (expand) -->
<g id="edge29" class="edge">
<title>[root] provider[&quot;registry.terraform.io/hashicorp/archive&quot;] (close)&#45;&gt;[root] data.archive_file.data (expand)</title>
<path fill="none" stroke="black" d="M153.45,-648.74C87.36,-630.66 7.18,-594.07 7.18,-523 7.18,-523 7.18,-523 7.18,-305 7.18,-217.36 119.74,-183.71 199.78,-170.85"/>
<polygon fill="black" stroke="black" points="199.98,-174.36 209.35,-169.4 198.93,-167.44 199.98,-174.36"/>
</g>
<!-- [root] provider[&quot;registry.terraform.io/hashicorp/aws&quot;] (close) -->
<g id="node27" class="node">
<title>[root] provider[&quot;registry.terraform.io/hashicorp/aws&quot;] (close)</title>
<ellipse fill="none" stroke="black" cx="956.18" cy="-666" rx="227.46" ry="18"/>
<text text-anchor="middle" x="956.18" y="-662.3" font-family="Times,serif" font-size="14.00">[root] provider[&quot;registry.terraform.io/hashicorp/aws&quot;] (close)</text>
</g>
<!-- [root] provider[&quot;registry.terraform.io/hashicorp/aws&quot;] (close)&#45;&gt;[root] aws_api_gateway_integration.data_options_integration (expand) -->
<g id="edge30" class="edge">
<title>[root] provider[&quot;registry.terraform.io/hashicorp/aws&quot;] (close)&#45;&gt;[root] aws_api_gateway_integration.data_options_integration (expand)</title>
<path fill="none" stroke="black" d="M876.52,-648.79C838.02,-639.86 791.52,-627.43 751.18,-612 703.3,-593.69 651.45,-565.63 617.34,-545.92"/>
<polygon fill="black" stroke="black" points="619.48,-543.12 609.08,-541.11 615.96,-549.17 619.48,-543.12"/>
</g>
<!-- [root] provider[&quot;registry.terraform.io/hashicorp/aws&quot;] (close)&#45;&gt;[root] aws_api_gateway_integration_response.data_integration_response (expand) -->
<g id="edge31" class="edge">
<title>[root] provider[&quot;registry.terraform.io/hashicorp/aws&quot;] (close)&#45;&gt;[root] aws_api_gateway_integration_response.data_integration_response (expand)</title>
<path fill="none" stroke="black" d="M851.86,-649.58C827.23,-641.72 802.76,-629.87 784.18,-612 747.5,-576.74 777.67,-543.97 746.18,-504 709.1,-456.92 649.14,-422.07 605.88,-401.3"/>
<polygon fill="black" stroke="black" points="607.45,-398.17 596.92,-397.09 604.48,-404.51 607.45,-398.17"/>
</g>
<!-- [root] provider[&quot;registry.terraform.io/hashicorp/aws&quot;] (close)&#45;&gt;[root] aws_api_gateway_integration_response.data_options_integration_response (expand) -->
<g id="edge32" class="edge">
<title>[root] provider[&quot;registry.terraform.io/hashicorp/aws&quot;] (close)&#45;&gt;[root] aws_api_gateway_integration_response.data_options_integration_response (expand)</title>
<path fill="none" stroke="black" d="M825.23,-650.88C726.09,-640.18 588.94,-625.39 480.67,-613.71"/>
<polygon fill="black" stroke="black" points="481.11,-610.24 470.79,-612.65 480.36,-617.2 481.11,-610.24"/>
</g>
<!-- [root] provider[&quot;registry.terraform.io/hashicorp/aws&quot;] (close)&#45;&gt;[root] aws_api_gateway_usage_plan_key.data_usage_plan_key (expand) -->
<g id="edge33" class="edge">
<title>[root] provider[&quot;registry.terraform.io/hashicorp/aws&quot;] (close)&#45;&gt;[root] aws_api_gateway_usage_plan_key.data_usage_plan_key (expand)</title>
<path fill="none" stroke="black" d="M956.18,-647.7C956.18,-640.41 956.18,-631.73 956.18,-623.54"/>
<polygon fill="black" stroke="black" points="959.68,-623.62 956.18,-613.62 952.68,-623.62 959.68,-623.62"/>
</g>
<!-- [root] provider[&quot;registry.terraform.io/hashicorp/aws&quot;] (close)&#45;&gt;[root] aws_cloudwatch_log_group.data (expand) -->
<g id="edge34" class="edge">
<title>[root] provider[&quot;registry.terraform.io/hashicorp/aws&quot;] (close)&#45;&gt;[root] aws_cloudwatch_log_group.data (expand)</title>
<path fill="none" stroke="black" d="M1070.04,-649.98C1092.2,-642.01 1113.18,-630 1128.18,-612 1159.26,-574.7 1157.08,-514.57 1152.35,-479.31"/>
<polygon fill="black" stroke="black" points="1155.88,-479.23 1150.92,-469.87 1148.96,-480.28 1155.88,-479.23"/>
</g>
<!-- [root] provider[&quot;registry.terraform.io/hashicorp/aws&quot;] (close)&#45;&gt;[root] aws_dynamodb_table.courses_table (expand) -->
<g id="edge35" class="edge">
<title>[root] provider[&quot;registry.terraform.io/hashicorp/aws&quot;] (close)&#45;&gt;[root] aws_dynamodb_table.courses_table (expand)</title>
<path fill="none" stroke="black" d="M1158.58,-657.56C1315.86,-649.99 1512.2,-635.89 1542.18,-612 1605.35,-561.66 1616.62,-457.84 1618.23,-407.55"/>
<polygon fill="black" stroke="black" points="1621.73,-407.84 1618.43,-397.78 1614.73,-407.7 1621.73,-407.84"/>
</g>
<!-- [root] provider[&quot;registry.terraform.io/hashicorp/aws&quot;] (close)&#45;&gt;[root] aws_dynamodb_table.rounds_table (expand) -->
<g id="edge36" class="edge">
<title>[root] provider[&quot;registry.terraform.io/hashicorp/aws&quot;] (close)&#45;&gt;[root] aws_dynamodb_table.rounds_table (expand)</title>
<path fill="none" stroke="black" d="M1148.75,-656.16C1298.87,-647.83 1494.33,-633.39 1571.18,-612 1657.54,-587.96 1752.18,-612.64 1752.18,-523 1752.18,-523 1752.18,-523 1752.18,-377 1752.18,-332.99 1725.28,-288.17 1705.32,-260.96"/>
<polygon fill="black" stroke="black" points="1708.35,-259.17 1699.51,-253.31 1702.77,-263.39 1708.35,-259.17"/>
</g>
<!-- [root] provider[&quot;registry.terraform.io/hashicorp/aws&quot;] (close)&#45;&gt;[root] aws_lambda_permission.apigw_lambda (expand) -->
<g id="edge37" class="edge">
<title>[root] provider[&quot;registry.terraform.io/hashicorp/aws&quot;] (close)&#45;&gt;[root] aws_lambda_permission.apigw_lambda (expand)</title>
<path fill="none" stroke="black" d="M1134.96,-654.58C1263.22,-636.53 1427.29,-589.33 1509.18,-468 1553.1,-402.93 1446.56,-353.97 1367.99,-327.97"/>
<polygon fill="black" stroke="black" points="1369.14,-324.67 1358.55,-324.92 1366.99,-331.33 1369.14,-324.67"/>
</g>
<!-- [root] root -->
<g id="node28" class="node">
<title>[root] root</title>
<ellipse fill="none" stroke="black" cx="713.18" cy="-738" rx="47.39" ry="18"/>
<text text-anchor="middle" x="713.18" y="-734.3" font-family="Times,serif" font-size="14.00">[root] root</text>
</g>
<!-- [root] root&#45;&gt;[root] provider[&quot;registry.terraform.io/hashicorp/archive&quot;] (close) -->
<g id="edge38" class="edge">
<title>[root] root&#45;&gt;[root] provider[&quot;registry.terraform.io/hashicorp/archive&quot;] (close)</title>
<path fill="none" stroke="black" d="M669.44,-730.54C598.86,-720.12 457.53,-699.25 356.09,-684.26"/>
<polygon fill="black" stroke="black" points="356.75,-680.83 346.35,-682.83 355.73,-687.75 356.75,-680.83"/>
</g>
<!-- [root] root&#45;&gt;[root] provider[&quot;registry.terraform.io/hashicorp/aws&quot;] (close) -->
<g id="edge39" class="edge">
<title>[root] root&#45;&gt;[root] provider[&quot;registry.terraform.io/hashicorp/aws&quot;] (close)</title>
<path fill="none" stroke="black" d="M750.09,-726.37C786.19,-715.97 842.09,-699.87 886.56,-687.05"/>
<polygon fill="black" stroke="black" points="887.51,-690.42 896.15,-684.29 885.57,-683.7 887.51,-690.42"/>
</g>
</g>
</svg>
